<?xml version="1.0" encoding="utf-8"?>
<!-- Generator: Adobe Illustrator 16.0.0, SVG Export Plug-In . SVG Version: 6.00 Build 0)  -->
<!DOCTYPE svg PUBLIC "-//W3C//DTD SVG 1.1//EN" "http://www.w3.org/Graphics/SVG/1.1/DTD/svg11.dtd">
<svg version="1.1" id="Layer_1" xmlns="http://www.w3.org/2000/svg" xmlns:xlink="http://www.w3.org/1999/xlink" x="0px" y="0px"
	 width="532.707px" height="567.436px" viewBox="-167.214 137.444 532.707 567.436"
	 enable-background="new -167.214 137.444 532.707 567.436" xml:space="preserve">
<path d="M-148.371,421.655c0-155.533,110.544-264.14,290.573-264.14c122.275,0,204.447,48.916,204.447,122.302
	c0,46.951-26.408,74.342-67.494,74.342c-43.05,0-64.574-30.31-122.302-30.31c-61.629,0-104.68,38.14-104.68,96.822
	c0,57.727,43.051,97.831,106.646,97.831c56.743,0,78.27-31.292,121.319-31.292c42.069,0,65.532,26.408,65.532,69.458
	c0,79.25-84.135,128.141-205.428,128.141C-39.764,684.812-148.371,575.248-148.371,421.655z"/>
</svg>
